<svg width="44" height="44" viewBox="0 0 44 44" fill="none" xmlns="http://www.w3.org/2000/svg">
<path d="M33.0001 38.4999C33.0001 34.6101 31.4548 30.8796 28.7043 28.129C25.9538 25.3785 22.2233 23.8333 18.3334 23.8333C14.4436 23.8333 10.713 25.3785 7.96252 28.129C5.21198 30.8796 3.66675 34.6101 3.66675 38.4999" stroke="#FF7348" stroke-width="2.75" stroke-linecap="round" stroke-linejoin="round"/>
<path d="M18.3334 23.8333C23.396 23.8333 27.5001 19.7293 27.5001 14.6667C27.5001 9.60406 23.396 5.5 18.3334 5.5C13.2708 5.5 9.16675 9.60406 9.16675 14.6667C9.16675 19.7293 13.2708 23.8333 18.3334 23.8333Z" stroke="#FF7348" stroke-width="2.75" stroke-linecap="round" stroke-linejoin="round"/>
<path d="M40.3334 36.6668C40.3334 30.4884 36.6667 24.7501 33.0001 22.0001C34.2053 21.0959 35.1691 19.9084 35.8061 18.5429C36.4431 17.1774 36.7337 15.676 36.6521 14.1714C36.5705 12.6669 36.1193 11.2056 35.3384 9.91698C34.5575 8.62835 33.471 7.55209 32.175 6.78345" stroke="#FF7348" stroke-width="2.75" stroke-linecap="round" stroke-linejoin="round"/>
</svg>
