<svg width="410" height="156" viewBox="0 0 410 156" fill="none" xmlns="http://www.w3.org/2000/svg">
<path d="M0 51.4527L175.161 137.933C222.544 161.236 317.128 177.884 316.403 58.0552C316.403 15.4884 302.162 -35.5451 295.042 -55.7411M0 38.5066L175.161 124.987C222.544 148.29 326.501 162.401 326.501 56.8901C326.501 14.3233 316.273 -35.8041 309.153 -56M2.45976 22.065L177.362 106.733C224.744 130.036 330.644 163.307 336.081 41.3547C337.977 -1.16982 330.255 -35.5451 323.135 -55.7411M4.40168 4.45832L160.273 85.3715C207.656 108.674 341.631 140.004 345.92 43.8145C347.816 1.28994 343.201 -35.5451 336.081 -55.7411M6.08467 -11.2065L161.956 69.7067C209.339 93.0097 349.415 132.884 356.018 28.4086C358.703 -14.0734 353.947 -36.063 349.415 -54.9643M9.83904 -26.224L167.523 56.8901C214.905 80.1931 353.626 106.215 364.045 28.9265C369.611 -12.3716 365.598 -35.5451 362.232 -54.9643M15.1469 -39.5584L172.831 43.5556C220.213 66.8586 357.313 99.7417 373.884 14.0384C379.714 -16.1148 377.638 -35.5451 374.919 -55.2232M27.3163 -49.6564L182.54 31.5157C229.925 52.4318 364.839 83.2217 381.411 6.29682C387.242 -20.7679 387.348 -38.9111 385.923 -55.6116M40.6508 -53.9286L195.494 22.8727C242.881 41.7139 374.659 66.7613 391.231 -2.53257C397.062 -26.9125 398.887 -40.9825 398.887 -55.6116M61.8824 -56L209.475 16.7886C256.863 34.1693 368.528 51.1949 399.129 -7.32263C406.508 -21.4339 411.168 -40.051 409.744 -53.9286" stroke="#384555" stroke-opacity="0.2" stroke-width="2"/>
</svg>
