<svg width="44" height="44" viewBox="0 0 44 44" fill="none" xmlns="http://www.w3.org/2000/svg">
<path d="M42.1667 40.3333H9.16667C7.70798 40.3333 6.30903 39.7539 5.27758 38.7224C4.24613 37.691 3.66667 36.292 3.66667 34.8333V1.83333C3.66667 1.3471 3.47351 0.880788 3.1297 0.536971C2.78588 0.193154 2.31956 0 1.83333 0C1.3471 0 0.880788 0.193154 0.536971 0.536971C0.193154 0.880788 0 1.3471 0 1.83333L0 34.8333C0.00291107 37.2636 0.969617 39.5935 2.68807 41.3119C4.40652 43.0304 6.73641 43.9971 9.16667 44H42.1667C42.6529 44 43.1192 43.8068 43.463 43.463C43.8068 43.1192 44 42.6529 44 42.1667C44 41.6804 43.8068 41.2141 43.463 40.8703C43.1192 40.5265 42.6529 40.3333 42.1667 40.3333Z" fill="#FF7348"/>
<path d="M11.0003 36.6665C11.4866 36.6665 11.9529 36.4734 12.2967 36.1295C12.6405 35.7857 12.8337 35.3194 12.8337 34.8332V21.9998C12.8337 21.5136 12.6405 21.0473 12.2967 20.7035C11.9529 20.3597 11.4866 20.1665 11.0003 20.1665C10.5141 20.1665 10.0478 20.3597 9.70396 20.7035C9.36015 21.0473 9.16699 21.5136 9.16699 21.9998V34.8332C9.16699 35.3194 9.36015 35.7857 9.70396 36.1295C10.0478 36.4734 10.5141 36.6665 11.0003 36.6665Z" fill="#FF7348"/>
<path d="M18.333 18.3333V34.8333C18.333 35.3195 18.5262 35.7859 18.87 36.1297C19.2138 36.4735 19.6801 36.6666 20.1664 36.6666C20.6526 36.6666 21.1189 36.4735 21.4627 36.1297C21.8065 35.7859 21.9997 35.3195 21.9997 34.8333V18.3333C21.9997 17.8471 21.8065 17.3808 21.4627 17.037C21.1189 16.6932 20.6526 16.5 20.1664 16.5C19.6801 16.5 19.2138 16.6932 18.87 17.037C18.5262 17.3808 18.333 17.8471 18.333 18.3333Z" fill="#FF7348"/>
<path d="M27.5 23.8333V34.8333C27.5 35.3195 27.6932 35.7859 28.037 36.1297C28.3808 36.4735 28.8471 36.6666 29.3333 36.6666C29.8196 36.6666 30.2859 36.4735 30.6297 36.1297C30.9735 35.7859 31.1667 35.3195 31.1667 34.8333V23.8333C31.1667 23.3471 30.9735 22.8808 30.6297 22.537C30.2859 22.1932 29.8196 22 29.3333 22C28.8471 22 28.3808 22.1932 28.037 22.537C27.6932 22.8808 27.5 23.3471 27.5 23.8333Z" fill="#FF7348"/>
<path d="M36.667 16.4998V34.8332C36.667 35.3194 36.8601 35.7857 37.204 36.1295C37.5478 36.4733 38.0141 36.6665 38.5003 36.6665C38.9866 36.6665 39.4529 36.4733 39.7967 36.1295C40.1405 35.7857 40.3337 35.3194 40.3337 34.8332V16.4998C40.3337 16.0136 40.1405 15.5473 39.7967 15.2035C39.4529 14.8597 38.9866 14.6665 38.5003 14.6665C38.0141 14.6665 37.5478 14.8597 37.204 15.2035C36.8601 15.5473 36.667 16.0136 36.667 16.4998Z" fill="#FF7348"/>
<path d="M10.9999 16.4999C11.4861 16.4998 11.9524 16.3066 12.2961 15.9628L18.8704 9.38843C19.2199 9.05554 19.684 8.86986 20.1666 8.86986C20.6492 8.86986 21.1133 9.05554 21.4628 9.38843L25.4448 13.3704C26.4762 14.4015 27.8749 14.9808 29.3333 14.9808C30.7917 14.9808 32.1904 14.4015 33.2218 13.3704L43.4628 3.12943C43.7967 2.78366 43.9815 2.32056 43.9773 1.83986C43.9732 1.35917 43.7803 0.899347 43.4404 0.559432C43.1005 0.219517 42.6407 0.0267073 42.16 0.0225302C41.6793 0.0183531 41.2162 0.203143 40.8704 0.537099L30.6294 10.7763C30.2856 11.12 29.8194 11.313 29.3333 11.313C28.8471 11.313 28.3809 11.12 28.0371 10.7763L24.0551 6.7961C23.0237 5.76501 21.625 5.18577 20.1666 5.18577C18.7082 5.18577 17.3095 5.76501 16.2781 6.7961L9.70377 13.3704C9.44745 13.6268 9.27291 13.9535 9.2022 14.309C9.13149 14.6646 9.1678 15.0332 9.30653 15.3681C9.44525 15.7031 9.68018 15.9894 9.98159 16.1908C10.283 16.3923 10.6374 16.4999 10.9999 16.4999Z" fill="#FF7348"/>
</svg>
