<svg width="283" height="272" viewBox="0 0 283 272" fill="none" xmlns="http://www.w3.org/2000/svg">
<path d="M89.2823 187.958C83.3919 190.425 81.1547 196.473 85.0046 199.925C92.9254 207.029 125.534 203.52 127.068 198.704C128.58 193.96 101.573 182.809 89.2823 187.958Z" stroke="#384555" stroke-opacity="0.3" stroke-miterlimit="10"/>
<path d="M103.878 172.157C117.332 167.442 139.924 201.007 130.599 208.931C124.865 213.804 110.986 213.195 99.667 211.594C89.0413 210.091 73.8584 203.945 70.1126 193.738C68.1292 188.319 69.3198 180.598 73.5205 177.895C76.7715 175.803 81.1604 176.744 82.1286 176.396C86.7442 178.311 87.4215 179.056 91.0988 179.505C95.9055 180.092 100.177 173.453 103.878 172.157Z" stroke="#384555" stroke-opacity="0.3" stroke-miterlimit="10"/>
<path d="M117.529 155.648C133.155 158.143 150.136 207.169 133.185 218.451C122.39 225.637 103.57 222.464 90.4515 218.665C78.4013 215.176 58.3362 203.531 54.2767 186.843C51.9169 177.146 54.7844 163.505 63.0003 159.559C69.5494 156.415 77.9878 159.119 79.4736 159.327C88.2556 164.053 88.9657 166.457 95.5048 168.075C104.163 170.216 110.998 154.6 117.529 155.648Z" stroke="#384555" stroke-opacity="0.3" stroke-miterlimit="10"/>
<path d="M130.191 139.249C147.444 143.849 159.359 213.4 134.782 228.08C118.921 237.552 95.1541 231.87 80.2464 225.845C66.7604 220.396 41.8972 203.25 37.4513 180.057C34.7692 166.069 39.245 146.537 51.4891 141.333C61.3277 137.149 73.8927 141.442 75.8262 142.366C89.3436 148.83 89.5147 153.967 98.9255 156.755C111.426 160.468 121.155 136.845 130.191 139.249Z" stroke="#384555" stroke-opacity="0.3" stroke-miterlimit="10"/>
<path d="M142.091 123.596C161.198 130.233 167.789 220.308 135.618 238.455C114.669 250.167 85.9656 242.037 69.2813 233.773C54.3438 226.377 24.7138 203.731 19.8587 174.016C16.8743 155.751 22.9386 130.321 39.2123 123.849C52.3461 118.629 68.9377 124.751 71.4145 126.147C88.8388 135.969 89.2894 142.244 101.569 146.181C117.915 151.467 130.654 119.625 142.091 123.596Z" stroke="#384555" stroke-opacity="0.3" stroke-miterlimit="10"/>
<path d="M26.4007 106.573C42.824 100.32 63.4324 108.261 66.4681 110.138C87.7523 123.297 88.5394 130.682 103.684 135.805C123.879 142.637 139.703 102.494 153.447 108.141C174.559 116.816 175.744 227.531 135.909 249.029C109.916 263.056 76.2211 252.413 57.7702 241.899C41.3839 232.563 7.00861 204.417 1.73284 168.175C-1.5467 145.633 6.09462 114.303 26.4007 106.573Z" stroke="#384555" stroke-opacity="0.3" stroke-miterlimit="10"/>
<path d="M204.117 95.1649C197.648 95.1107 189.89 83.8896 195.692 82.0159C199.043 80.9321 207.915 82.6461 211.399 85.6963C216.307 89.9885 208.569 95.2034 204.117 95.1649Z" stroke="#384555" stroke-opacity="0.3" stroke-miterlimit="10"/>
<path d="M186.536 83.5873C187.169 82.0814 190.134 81.4127 192.839 79.5788C198.325 75.857 199.113 74.0888 203.009 71.8443C204.529 70.9673 206.574 69.8151 208.57 70.3427C211.628 71.1513 212.39 74.6506 216.27 80.8137C221.301 88.8221 223.206 90.8926 221.768 95.1363C221.433 96.1231 221 99.3188 218.577 101.268C215.222 103.963 211.29 101.881 206.373 103.665C200.469 105.804 197.541 109.612 194.979 107.929C193.174 106.744 193.107 103.498 191.755 97.8471C190.726 93.5421 190.078 90.7172 188.826 88.4128C187.325 85.6692 185.832 85.2614 186.536 83.5873Z" stroke="#384555" stroke-opacity="0.3" stroke-miterlimit="10"/>
<path d="M176.648 86.7259C176.758 84.0564 180.95 82.7645 184.405 78.9072C191.49 70.9944 188.207 65.3404 193.887 59.5594C196.296 57.1053 200.078 54.7282 203.868 55.1888C209.246 55.8433 211.053 61.4004 219.333 72.6671C230.158 87.3975 234.77 90.2823 233.759 98.1323C233.552 99.7323 233.351 105.875 229.12 109.573C223.478 114.504 216.715 110.018 207.882 113.724C198.012 117.859 194.323 126.701 190.995 124.871C188.684 123.6 189.569 118.484 187.792 108.505C186.535 101.412 185.758 97.2668 183.244 93.8715C180.071 89.5893 176.529 89.6249 176.648 86.7259Z" stroke="#384555" stroke-opacity="0.3" stroke-miterlimit="10"/>
<path d="M166.749 89.8302C166.321 86.0043 171.75 84.0807 175.96 78.1999C184.63 66.0933 177.155 56.6305 184.754 47.2389C188.006 43.2205 193.584 39.6256 199.155 40.0006C206.877 40.5197 209.73 48.0917 222.397 64.4862C239.052 85.9074 246.224 89.6791 245.753 101.094C245.661 103.32 245.703 112.395 239.668 117.848C231.737 125.011 222.129 118.112 209.396 123.752C195.551 129.883 191.113 143.754 187.01 141.783C184.194 140.42 185.997 133.438 183.828 119.131C182.331 109.251 181.429 103.805 177.659 99.2988C172.799 93.4922 167.207 93.9513 166.749 89.8302Z" stroke="#384555" stroke-opacity="0.3" stroke-miterlimit="10"/>
<path d="M156.828 92.9261C155.868 87.948 162.517 85.3855 167.494 77.4855C177.729 61.1779 166.046 47.9434 175.6 34.9113C179.683 29.3357 187.072 24.5215 194.421 24.8039C204.491 25.1918 208.345 34.8043 225.433 56.2982C247.864 84.4472 257.625 89.0959 257.712 104.049C257.729 106.901 258.012 118.899 250.178 126.114C239.949 135.5 227.515 126.193 210.873 133.772C193.05 141.892 187.864 160.804 183.002 158.688C179.679 157.237 182.403 148.384 179.842 129.751C178.101 117.081 177.078 110.342 172.052 104.719C165.502 97.3951 157.86 98.2792 156.828 92.9261Z" stroke="#384555" stroke-opacity="0.3" stroke-miterlimit="10"/>
<path d="M146.888 96.0205C148.495 102.609 158.183 101.297 166.423 110.138C172.707 116.878 173.849 124.908 175.834 140.369C178.781 163.327 175.142 174.052 178.97 175.59C184.598 177.853 190.532 153.897 212.336 143.791C232.878 134.271 248.163 146.007 260.674 134.379C270.318 125.414 269.782 110.493 269.657 107.001C268.992 88.5141 256.657 82.9841 228.449 48.1073C206.939 21.5141 202.088 9.86385 189.665 9.60574C180.539 9.41609 171.335 15.4523 166.423 22.5822C154.92 39.2662 170.833 56.2797 159.008 76.7696C153.277 86.6988 145.392 89.8916 146.888 96.0205Z" stroke="#384555" stroke-opacity="0.3" stroke-miterlimit="10"/>
<path d="M229.098 202.057C227.409 201.201 223.865 202.85 223.551 205.418C223.196 208.331 227.207 210.741 228.969 209.992C231.054 209.105 231.338 203.189 229.098 202.057Z" stroke="#384555" stroke-opacity="0.3" stroke-miterlimit="10"/>
<path d="M233.854 217.536C236.732 214.845 237.989 209.907 239.428 201.442C240.854 193.049 240.63 187.04 239.377 186.603C238.694 186.368 236.759 188.209 235.099 189.558C231.992 192.076 226.674 191.797 225.31 192.069C220.32 193.067 218.854 194.921 216.768 198.472C215.803 200.112 213.551 203.748 212.56 208.026C211.049 214.504 204.274 216.501 205.1 219.097C205.794 221.265 212.506 221.791 216.858 221.852C223.095 221.941 229.406 221.691 233.854 217.536Z" stroke="#384555" stroke-opacity="0.3" stroke-miterlimit="10"/>
<path d="M238.842 224.77C243.572 219.961 245.432 211.892 248.298 196.801C251.21 181.637 251.192 171.235 249.757 170.848C248.681 170.551 245.194 174.3 242.231 176.979C236.646 182.052 226.648 181.217 224.587 181.542C215.191 182.994 212.875 186.472 209.233 193.046C207.716 195.784 203.554 202.457 201.658 210.339C198.739 222.413 184.901 225.574 186.046 230.05C187.003 233.778 199.835 234.35 207.91 234.043C219.312 233.6 230.85 232.898 238.842 224.77Z" stroke="#384555" stroke-opacity="0.3" stroke-miterlimit="10"/>
<path d="M243.803 231.957C250.389 225.032 252.831 213.825 257.14 192.112C261.516 170.173 261.72 155.404 260.109 155.036C258.633 154.694 253.599 160.341 249.341 164.358C241.292 171.997 226.601 170.592 223.842 170.96C210.042 172.803 206.864 177.955 201.676 187.566C199.606 191.4 193.536 201.113 190.731 212.593C186.409 230.264 165.506 234.588 166.967 240.945C168.188 246.232 187.145 246.873 198.94 246.172C215.503 245.238 232.286 244.066 243.803 231.957Z" stroke="#384555" stroke-opacity="0.3" stroke-miterlimit="10"/>
<path d="M248.748 239.139C257.195 230.099 260.216 215.753 265.968 187.418C271.814 158.707 272.242 139.574 270.448 139.219C268.572 138.844 261.986 146.366 256.436 151.724C245.907 161.912 226.541 159.952 223.083 160.372C204.88 162.581 200.815 169.42 194.105 182.079C191.473 187.007 183.503 199.761 179.793 214.842C174.064 238.108 146.095 243.596 147.878 251.834C149.359 258.678 174.44 259.361 189.957 258.298C211.675 256.833 233.712 255.235 248.748 239.139Z" stroke="#384555" stroke-opacity="0.3" stroke-miterlimit="10"/>
<path d="M222.317 149.78C199.713 152.347 194.798 160.903 186.528 176.589C183.348 182.619 173.464 198.406 168.847 217.087C161.717 245.951 126.679 252.601 128.779 262.718C130.525 271.131 161.729 271.844 180.967 270.418C207.848 268.422 235.135 266.4 253.687 246.319C263.995 235.161 267.594 217.681 274.79 182.72C282.095 147.236 282.746 123.744 280.779 123.399C278.497 123 270.37 132.383 263.526 139.085C250.516 151.822 226.475 149.308 222.317 149.78Z" stroke="#384555" stroke-opacity="0.3" stroke-miterlimit="10"/>
<path d="M38.5207 81.1902C41.0873 91.0295 59.5097 86.4079 81.4399 108.569C89.2979 116.51 94.5666 124.817 104.967 126.109C106.016 126.239 116.435 127.378 123.789 120.69C133.04 112.277 127.393 100.605 138.19 84.3274C142.167 78.3311 142.829 80.0722 145.747 75.3437C158.204 55.1588 139.205 34.6674 150.168 14.1689C155.214 4.73315 162.715 2.56708 162.002 1.33503C158.925 -3.9511 31.5852 54.6769 38.5207 81.1902Z" stroke="#384555" stroke-opacity="0.3" stroke-miterlimit="10"/>
<path d="M107.819 112.657C108.449 112.572 115.319 113.085 120.031 108.357C125.99 102.386 121.743 94.1653 128.57 83.0668C131.082 78.9799 131.431 80.0879 133.22 76.8552C140.848 63.0602 127.157 49.1825 133.861 35.6785C136.964 29.4269 141.862 27.9938 141.133 27.3835C137.838 24.6 53.7862 65.7211 60.3881 83.6144C62.8634 90.3251 76.3766 87.9437 91.8389 102.397C97.4611 107.649 101.268 113.546 107.819 112.657Z" stroke="#384555" stroke-opacity="0.3" stroke-miterlimit="10"/>
<path d="M110.671 99.2047C110.85 98.7526 114.21 98.7626 116.274 96.0233C118.955 92.4697 116.1 87.7355 118.949 81.8077C119.994 79.6316 120.037 80.0965 120.693 78.3668C123.509 70.9274 115.096 63.7062 117.556 57.1866C118.707 54.1179 120.846 53.5945 120.275 53.4305C116.106 54.0223 76.0728 76.8053 82.2483 86.0385C84.6595 89.6463 93.2904 89.4738 102.231 96.2258C105.629 98.7926 107.853 100.672 110.671 99.2047Z" stroke="#384555" stroke-opacity="0.3" stroke-miterlimit="10"/>
<path d="M113.522 85.7534C111.309 79.2865 102.597 77.0876 99.406 79.479C94.7006 83.0098 98.7145 87.6071 104.111 88.4627C108.145 89.0973 116.055 93.1542 113.522 85.7534Z" stroke="#384555" stroke-opacity="0.3" stroke-miterlimit="10"/>
</svg>
