<svg width="100" height="100" viewBox="0 0 100 100" fill="none" xmlns="http://www.w3.org/2000/svg">
<path d="M50 100C22.3729 100 0 77.6271 0 50C0 22.3729 22.3729 0 50 0C77.6271 0 100 22.3729 100 50C100 77.6271 77.6271 100 50 100ZM31.1441 50L24.0678 57.0763C20.1695 60.9746 20.1695 67.3305 24.0678 71.2288L28.7712 75.9322C32.6695 79.8305 39.0254 79.8305 42.9237 75.9322L50 68.8559C53.0508 65.8051 53.6864 61.2288 51.9068 57.5L42.9237 66.483L40.5508 68.8559C37.9661 71.4407 33.7288 71.4407 31.1017 68.8559C28.517 66.2712 28.517 62.0339 31.1017 59.4068L33.4746 57.0339L42.4576 48.0508C38.7712 46.3136 34.2373 46.9492 31.1441 50ZM59.4492 45.2966C60.7627 43.9831 60.7627 41.9068 59.4492 40.5932C58.1356 39.2797 56.0169 39.2797 54.7458 40.5932L40.5932 54.7458C39.2797 56.0593 39.2797 58.1356 40.5932 59.4492C41.9068 60.7627 44.0254 60.7627 45.2966 59.4492L59.4492 45.2966ZM75.9322 28.7712L71.2288 24.0678C67.3305 20.1695 60.9746 20.1695 57.0763 24.0678L50 31.1441C46.9068 34.2373 46.3136 38.7712 48.0932 42.5L57.0763 33.4746L59.4492 31.1017C62.0339 28.517 66.2712 28.517 68.8983 31.1017C71.4831 33.6864 71.4831 37.9237 68.8983 40.5508L66.5254 42.9237L57.5424 51.9068C61.2712 53.6864 65.8051 53.0508 68.8983 50L75.9746 42.9237C79.8305 39.0254 79.8305 32.7119 75.9322 28.7712Z" fill="#495a6f"/>
</svg>
